<svg width="63" height="27" viewBox="0 0 63 27" fill="none" xmlns="http://www.w3.org/2000/svg">
<g clip-path="url(#clip0_4174_1269)">
<path d="M13.2485 21H0.564453V0.97998H5.10045V17.444H13.2485V21Z" fill="black"/>
<path fill-rule="evenodd" clip-rule="evenodd" d="M29.2869 13.748C29.2869 18.368 25.9549 21.308 21.5589 21.308C17.1909 21.308 13.8589 18.396 13.8589 13.832V13.608C13.8589 9.01602 17.1909 6.02002 21.5869 6.02002C25.9829 6.02002 29.2869 8.96002 29.2869 13.524V13.748ZM18.0029 13.748C18.0029 16.548 19.2909 18.228 21.5869 18.228C23.8549 18.228 25.1709 16.548 25.1709 13.776V13.58C25.1709 10.78 23.8549 9.10002 21.5869 9.10002C19.3469 9.10002 18.0029 10.724 18.0029 13.524V13.748Z" fill="black"/>
<path fill-rule="evenodd" clip-rule="evenodd" d="M37.665 26.404C42.4809 26.404 45.3649 24.192 45.3929 19.852V6.35602H41.361V8.54002C40.521 7.05602 39.0929 6.02002 36.7129 6.02002C33.0729 6.02002 30.2729 8.96002 30.2729 13.16V13.356C30.2729 17.696 33.1009 20.356 36.6569 20.356C38.813 20.356 40.549 19.068 41.361 17.64V19.852C41.361 22.148 40.129 23.436 37.665 23.436C35.593 23.436 34.6689 22.596 34.417 21.308H30.3849C30.7769 24.332 32.933 26.404 37.665 26.404ZM37.861 17.304C35.845 17.304 34.417 15.792 34.417 13.356V13.132C34.417 10.724 35.6769 9.10002 37.945 9.10002C40.157 9.10002 41.4729 10.612 41.4729 13.104V13.3C41.4729 15.792 39.989 17.304 37.861 17.304Z" fill="black"/>
<path fill-rule="evenodd" clip-rule="evenodd" d="M62.6616 13.748C62.6616 18.368 59.3296 21.308 54.9336 21.308C50.5656 21.308 47.2336 18.396 47.2336 13.832V13.608C47.2336 9.01602 50.5656 6.02002 54.9616 6.02002C59.3576 6.02002 62.6616 8.96002 62.6616 13.524V13.748ZM51.3776 13.748C51.3776 16.548 52.6656 18.228 54.9616 18.228C57.2296 18.228 58.5456 16.548 58.5456 13.776V13.58C58.5456 10.78 57.2296 9.10002 54.9616 9.10002C52.7216 9.10002 51.3776 10.724 51.3776 13.524V13.748Z" fill="black"/>
</g>
<defs>
<clipPath id="clip0_4174_1269">
<rect width="63" height="27" fill="white"/>
</clipPath>
</defs>
</svg>
