<svg width="63" height="27" viewBox="0 0 63 27" fill="none" xmlns="http://www.w3.org/2000/svg">
<g clip-path="url(#clip0_4174_573)">
<path d="M55.4334 12.8111L55.4056 12.839C55.6007 12.3093 55.991 12.1142 56.3255 12.1142C56.7994 12.1142 57.2175 12.4766 57.2175 13.0062C57.2175 13.1178 57.2175 13.2571 57.1618 13.4244C56.1861 15.9333 54.1232 17.2155 52.1162 17.4107C51.1963 18.9717 49.691 20.1147 47.5445 20.1147C44.4781 20.1147 43.1122 17.6895 43.1122 15.0412C43.1122 11.7797 45.1751 8.15576 48.6317 8.15576C49.3843 8.15576 50.0255 8.32309 50.5551 8.54606C52.1162 9.13144 53.1197 11.1664 53.1197 13.3407C53.1197 14.0376 53.0639 14.7345 52.8967 15.4036C53.9282 15.0412 54.9038 14.2049 55.4334 12.8111ZM49.6073 10.4416V10.4138C48.9941 10.4138 48.6317 11.2221 48.6317 12.1978C48.6317 13.6195 49.4122 14.9297 50.6387 15.4036C50.8339 14.7903 50.9175 14.0934 50.9175 13.285C50.9175 11.724 50.4436 10.4416 49.6073 10.4416ZM47.5724 18.0797C48.3529 18.0797 49.1334 17.7452 49.7467 17.0483C47.9348 16.2399 46.7918 14.3443 46.7918 12.5323C46.7918 11.919 46.9034 11.2779 47.0706 10.7204C45.9556 11.6403 45.3144 13.4523 45.3144 15.0412C45.3144 17.104 46.2901 18.0797 47.5724 18.0797Z" fill="black"/>
<path d="M43.5426 12.811L43.5147 12.8389C43.7098 12.3092 44.0443 12.0863 44.3788 12.0863C44.8528 12.0863 45.3266 12.5044 45.3266 13.034C45.3266 13.1734 45.2988 13.2849 45.243 13.4243C44.1559 16.0725 42.539 19.1668 39.9466 20.9787L39.8908 21.5363C39.5842 24.8814 37.8838 26.9999 35.7373 26.9999C34.1204 26.9999 33.1726 25.8849 33.1726 24.5747C33.1726 22.2053 35.5978 21.3411 37.8559 19.8916C37.9116 19.3061 37.9395 18.6371 37.9673 17.8844C36.8523 19.111 35.6536 19.6128 34.5943 19.6128C32.4757 19.6128 30.7474 17.8844 30.7474 15.2363C30.7474 11.1663 33.4235 8.49023 36.4063 8.49023H36.4342C38.4691 8.49023 40.6435 9.57736 40.6435 11.5287C40.6435 12.1699 40.3647 15.6544 40.1417 18.3584C41.647 16.9367 42.9014 14.623 43.5426 12.811ZM34.9009 17.6057C35.9324 17.6057 37.3262 16.9646 38.1904 13.8146C38.3297 13.1177 38.4133 12.5044 38.3855 11.7796C38.2183 11.027 37.5771 10.5809 36.6571 10.5809C34.7616 10.5809 32.9497 12.3929 32.9497 15.1526C32.9497 16.8252 33.7302 17.6057 34.9009 17.6057ZM35.9602 24.965H35.9881C36.5735 24.965 37.2147 24.5747 37.6328 22.0659C36.4063 22.7906 35.2633 23.5154 35.2633 24.3796C35.2633 24.742 35.5421 24.965 35.9602 24.965Z" fill="black"/>
<path d="M31.2366 12.8111L31.2088 12.839C31.4039 12.3093 31.7942 12.1142 32.1287 12.1142C32.6026 12.1142 33.0207 12.4766 33.0207 13.0062C33.0207 13.1178 33.0207 13.2571 32.965 13.4244C31.9893 15.9333 29.9265 17.2155 27.9194 17.4107C26.9995 18.9717 25.4942 20.1147 23.3477 20.1147C20.2813 20.1147 18.9154 17.6895 18.9154 15.0412C18.9154 11.7797 20.9782 8.15576 24.4349 8.15576C25.1875 8.15576 25.8287 8.32309 26.3583 8.54606C27.9194 9.13144 28.923 11.1664 28.923 13.3407C28.923 14.0376 28.8672 14.7345 28.6999 15.4036C29.7314 15.0412 30.707 14.2049 31.2366 12.8111ZM25.4106 10.4416V10.4138C24.7973 10.4138 24.4349 11.2221 24.4349 12.1978C24.4349 13.6195 25.2154 14.9297 26.442 15.4036C26.6371 14.7903 26.7207 14.0934 26.7207 13.285C26.7207 11.724 26.2468 10.4416 25.4106 10.4416ZM23.3756 18.0797C24.1561 18.0797 24.9366 17.7452 25.5499 17.0483C23.738 16.2399 22.5951 14.3443 22.5951 12.5323C22.5951 11.919 22.7066 11.2779 22.8738 10.7204C21.7588 11.6403 21.1176 13.4523 21.1176 15.0412C21.1176 17.104 22.0933 18.0797 23.3756 18.0797Z" fill="black"/>
<path d="M20.3322 11.9311C19.9419 11.9311 19.6074 12.1263 19.3843 12.6559C18.6596 14.4958 17.1542 17.6179 15.621 17.6179C14.6556 17.6179 13.9085 17.3996 13.1536 17.179C12.3826 16.9537 11.6035 16.7259 10.5753 16.7259C10.2129 16.7259 9.71115 16.7817 9.23725 16.8653C10.6649 14.9185 11.1983 12.5607 11.7151 8.10396C10.742 8.04201 9.95045 7.86224 9.37349 7.68066C8.75725 13.333 8.05746 15.4882 5.50178 17.6179C5.16726 17.8967 5 18.287 5 18.6773C5 19.2906 5.52966 19.8202 6.1987 19.8202C6.42172 19.8202 6.6726 19.7366 6.92349 19.6251C8.3452 18.9839 9.20937 18.8167 10.2687 18.8167C10.9423 18.8167 11.7484 19.0093 12.6114 19.2155C13.6054 19.4531 14.675 19.7087 15.7047 19.7087C17.9626 19.7087 19.4401 17.5065 21.0848 13.2413C21.1685 13.102 21.1963 12.9347 21.1963 12.7953C21.1963 12.2656 20.7782 11.9311 20.3322 11.9311Z" fill="black"/>
<path fill-rule="evenodd" clip-rule="evenodd" d="M9.51493 6.52715C10.0197 6.70338 10.8079 6.90855 11.8297 6.96925L11.9969 6.96916C15.147 6.96916 17.2099 5.0178 17.2099 2.67616C17.2099 1.17082 16.0391 0 14.3943 0C12.1921 0 10.6589 1.50534 9.87832 4.48814C8.90264 3.95848 8.2336 3.01068 7.89908 1.81199C7.73181 1.22657 7.36942 0.864173 6.86763 0.864173C6.25435 0.864173 5.86407 1.33808 5.86407 1.97924C5.86407 3.87486 7.34154 5.68684 9.51592 6.52314L9.51493 6.52715ZM12.1642 4.93417C12.5823 3.01068 13.2514 2.09075 14.1435 2.09075C14.6174 2.09075 14.924 2.36952 14.924 2.8713C14.924 3.79123 13.9483 4.87841 12.1642 4.93417Z" fill="black"/>
</g>
<defs>
<clipPath id="clip0_4174_573">
<rect width="52.5" height="27" fill="white" transform="translate(5)"/>
</clipPath>
</defs>
</svg>
