<svg width="64" height="27" viewBox="0 0 64 27" fill="none" xmlns="http://www.w3.org/2000/svg">
<g clip-path="url(#clip0_4174_1231)">
<path d="M13.7485 21H1.06445V0.97998H5.60045V17.444H13.7485V21Z" fill="black"/>
<path fill-rule="evenodd" clip-rule="evenodd" d="M29.7869 13.748C29.7869 18.368 26.4549 21.308 22.0589 21.308C17.6909 21.308 14.3589 18.396 14.3589 13.832V13.608C14.3589 9.01602 17.6909 6.02002 22.0869 6.02002C26.4829 6.02002 29.7869 8.96002 29.7869 13.524V13.748ZM18.5029 13.748C18.5029 16.548 19.7909 18.228 22.0869 18.228C24.3549 18.228 25.6709 16.548 25.6709 13.776V13.58C25.6709 10.78 24.3549 9.10002 22.0869 9.10002C19.8469 9.10002 18.5029 10.724 18.5029 13.524V13.748Z" fill="black"/>
<path fill-rule="evenodd" clip-rule="evenodd" d="M38.165 26.404C42.9809 26.404 45.8649 24.192 45.8929 19.852V6.35602H41.861V8.54002C41.021 7.05602 39.5929 6.02002 37.2129 6.02002C33.5729 6.02002 30.7729 8.96002 30.7729 13.16V13.356C30.7729 17.696 33.6009 20.356 37.1569 20.356C39.313 20.356 41.049 19.068 41.861 17.64V19.852C41.861 22.148 40.629 23.436 38.165 23.436C36.093 23.436 35.1689 22.596 34.917 21.308H30.8849C31.2769 24.332 33.433 26.404 38.165 26.404ZM38.361 17.304C36.345 17.304 34.917 15.792 34.917 13.356V13.132C34.917 10.724 36.1769 9.10002 38.445 9.10002C40.657 9.10002 41.9729 10.612 41.9729 13.104V13.3C41.9729 15.792 40.489 17.304 38.361 17.304Z" fill="black"/>
<path fill-rule="evenodd" clip-rule="evenodd" d="M63.1616 13.748C63.1616 18.368 59.8296 21.308 55.4336 21.308C51.0656 21.308 47.7336 18.396 47.7336 13.832V13.608C47.7336 9.01602 51.0656 6.02002 55.4616 6.02002C59.8576 6.02002 63.1616 8.96002 63.1616 13.524V13.748ZM51.8776 13.748C51.8776 16.548 53.1656 18.228 55.4616 18.228C57.7296 18.228 59.0456 16.548 59.0456 13.776V13.58C59.0456 10.78 57.7296 9.10002 55.4616 9.10002C53.2216 9.10002 51.8776 10.724 51.8776 13.524V13.748Z" fill="black"/>
</g>
<defs>
<clipPath id="clip0_4174_1231">
<rect width="63" height="27" fill="white" transform="translate(0.5)"/>
</clipPath>
</defs>
</svg>
