<svg width="20" height="20" viewBox="0 0 20 20" fill="none" xmlns="http://www.w3.org/2000/svg">
<path d="M9.07088 1.50028C9.41462 0.683824 10.5854 0.683825 10.9291 1.50029L12.9579 6.31917C13.1029 6.66337 13.4306 6.89855 13.8067 6.92834L19.0727 7.34542C19.9649 7.41608 20.3267 8.51607 19.6469 9.09134L15.6348 12.4866C15.3482 12.7292 15.223 13.1097 15.3106 13.4723L16.5363 18.5489C16.744 19.4091 15.7969 20.0889 15.033 19.6281L10.5245 16.9075C10.2025 16.7132 9.7975 16.7132 9.47548 16.9075L4.96699 19.6281C4.20311 20.0889 3.25596 19.4091 3.46363 18.5489L4.68942 13.4723C4.77698 13.1097 4.65182 12.7292 4.36526 12.4866L0.353062 9.09134C-0.326718 8.51607 0.0350679 7.41608 0.927291 7.34542L6.19336 6.92834C6.5695 6.89855 6.89716 6.66337 7.04207 6.31917L9.07088 1.50028Z" fill="black"/>
</svg>
