<svg width="25" height="24" viewBox="0 0 25 24" fill="none" xmlns="http://www.w3.org/2000/svg">
<path fill-rule="evenodd" clip-rule="evenodd" d="M5.16666 3.24268C4.33823 3.24268 3.66666 3.91425 3.66666 4.74268V19.7427C3.66666 20.5711 4.33823 21.2427 5.16666 21.2427H20.1667C20.9951 21.2427 21.6667 20.5711 21.6667 19.7427V4.74268C21.6667 3.91425 20.9951 3.24268 20.1667 3.24268H5.16666ZM9.18742 7.2454C9.19305 8.20165 8.47727 8.79087 7.62789 8.78665C6.82773 8.78243 6.13023 8.1454 6.13445 7.24681C6.13867 6.40165 6.80664 5.72243 7.6743 5.74212C8.55461 5.76181 9.19305 6.40728 9.18742 7.2454ZM12.9464 10.0044H10.4264H10.425V18.5643H13.0884V18.3646C13.0884 17.9847 13.0881 17.6047 13.0878 17.2246C13.087 16.2108 13.0861 15.1959 13.0913 14.1824C13.0927 13.9363 13.1039 13.6804 13.1672 13.4455C13.4048 12.568 14.1938 12.0013 15.0741 12.1406C15.6394 12.2291 16.0134 12.5568 16.1709 13.0898C16.268 13.423 16.3116 13.7816 16.3158 14.129C16.3272 15.1766 16.3256 16.2242 16.324 17.2719C16.3234 17.6417 16.3228 18.0117 16.3228 18.3815V18.5629H18.9947V18.3576C18.9947 17.9056 18.9945 17.4537 18.9942 17.0018C18.9937 15.8723 18.9931 14.7428 18.9961 13.6129C18.9975 13.1024 18.9427 12.599 18.8175 12.1054C18.6305 11.3713 18.2438 10.7638 17.6152 10.3251C17.1694 10.0129 16.68 9.81178 16.133 9.78928C16.0707 9.78669 16.0079 9.7833 15.9448 9.77989C15.6651 9.76477 15.3808 9.74941 15.1134 9.80334C14.3484 9.95662 13.6763 10.3068 13.1686 10.9241C13.1096 10.9949 13.0519 11.0668 12.9658 11.1741L12.9464 11.1984V10.0044ZM6.3483 18.5671H8.99908V10.01H6.3483V18.5671Z" fill="black"/>
</svg>
