<svg width="140" height="57" viewBox="0 0 140 57" fill="none" xmlns="http://www.w3.org/2000/svg">
<path fill-rule="evenodd" clip-rule="evenodd" d="M38.5695 17.1943L27.06 39.6943H16.2493L21.066 30.3693H20.8499C16.8761 35.5278 10.9471 38.9237 2.49927 39.6943V30.4985C2.49927 30.4985 7.90358 30.1792 11.0806 26.839H2.49927V17.1945H12.1438V25.127L12.3602 25.1261L16.3014 17.1945H23.5953V25.0767L23.8116 25.0763L27.9006 17.1943H38.5695Z" fill="black"/>
<path d="M101.332 37.2108H104.438V19.3818H101.332V37.2108Z" fill="black"/>
<path fill-rule="evenodd" clip-rule="evenodd" d="M84.2085 37.0288C84.8835 37.3094 85.57 37.4498 86.2678 37.4498C87.4207 37.4498 88.4523 37.1692 89.3626 36.6078C90.2727 36.0465 90.9782 35.2729 91.4788 34.2868C91.9795 33.2932 92.2297 32.1667 92.2297 30.9075C92.2297 29.6484 91.9718 28.522 91.4561 27.5284C90.9402 26.5347 90.2235 25.7648 89.3056 25.2187C88.3878 24.665 87.3448 24.3919 86.1767 24.3995C85.4335 24.3995 84.7205 24.5436 84.0377 24.8319C83.3551 25.1201 82.7862 25.5297 82.3311 26.0607C82.296 26.1011 82.2618 26.1419 82.2287 26.1831V19.3933H79.1112V37.2109H82.206L82.1997 35.5464C82.2797 35.6445 82.3653 35.7404 82.4562 35.8342C82.9492 36.3424 83.5333 36.7405 84.2085 37.0288ZM87.3942 34.1503C86.886 34.4613 86.3057 34.6168 85.6533 34.6168C85.0086 34.6168 84.417 34.4574 83.8785 34.1389C83.3398 33.8127 82.9113 33.369 82.5927 32.8077C82.2817 32.2464 82.1262 31.6092 82.1262 30.8962C82.1187 30.1832 82.2703 29.546 82.5813 28.9847C82.9 28.4159 83.3285 27.9759 83.8671 27.6649C84.4056 27.3463 85.0011 27.1908 85.6533 27.1984C86.3057 27.1908 86.886 27.3425 87.3942 27.6535C87.91 27.9569 88.3043 28.3931 88.5775 28.962C88.8581 29.5233 88.9985 30.168 88.9985 30.8962C88.9985 31.6244 88.8581 32.2692 88.5775 32.8304C88.3043 33.3918 87.91 33.8317 87.3942 34.1503Z" fill="black"/>
<path d="M43.0693 20.4628H46.6192L49.7947 32.0598L53.1728 20.4628H56.1311L59.7947 31.827L62.844 20.4628H66.098L61.2966 37.2109H58.236L54.5105 26.1089L51.0907 37.2109H47.996L43.0693 20.4628Z" fill="black"/>
<path fill-rule="evenodd" clip-rule="evenodd" d="M71.3405 37.5066C70.104 37.5142 68.989 37.2411 67.9954 36.6875C67.0093 36.1261 66.2319 35.3486 65.6629 34.355C65.1017 33.3614 64.821 32.2274 64.821 30.953C64.821 29.7166 65.1093 28.5978 65.6858 27.5966C66.2622 26.5954 67.0434 25.8141 68.0295 25.2528C69.0157 24.6915 70.1154 24.4108 71.329 24.4108C72.6944 24.4108 73.889 24.7142 74.913 25.321C75.9447 25.9279 76.7145 26.7888 77.2228 27.9038C77.7385 29.0112 77.9244 30.2817 77.7803 31.7154H68.0344C68.0617 32.2865 68.2042 32.8061 68.4619 33.2741C68.7502 33.7899 69.1522 34.1919 69.6679 34.4801C70.1838 34.7684 70.7602 34.9125 71.3974 34.9125C71.8828 34.9049 72.3342 34.8215 72.7513 34.6622C73.1685 34.4954 73.5212 34.2716 73.8094 33.9909C74.1053 33.7102 74.3139 33.3917 74.4353 33.0352H77.6893C77.4921 33.9075 77.0977 34.685 76.506 35.3676C75.9143 36.0427 75.171 36.5699 74.2759 36.9491C73.3809 37.3284 72.4024 37.5142 71.3405 37.5066ZM68.4733 28.5865C68.2915 28.9034 68.1655 29.2447 68.0954 29.6105H74.5558C74.5089 29.1485 74.3663 28.7275 74.128 28.3475C73.8549 27.9 73.4833 27.5549 73.013 27.3122C72.5428 27.0618 72.0118 26.9367 71.4202 26.9367C70.7906 26.9367 70.2179 27.0808 69.702 27.369C69.1863 27.6573 68.7767 28.0631 68.4733 28.5865Z" fill="black"/>
<path d="M94.517 24.6725C94.517 23.6561 94.7483 22.7535 95.211 21.9646C95.6736 21.1682 96.3223 20.55 97.1566 20.1101C97.9985 19.6625 98.9809 19.4312 100.103 19.416V22.1808C99.58 22.1884 99.1325 22.2984 98.7609 22.5108C98.3968 22.7156 98.1161 23.0152 97.9189 23.4096C97.7374 23.7727 97.6394 24.1937 97.625 24.6725H100.035V27.3008H97.6232V37.2109H94.517V27.3008H92.5145V24.6725H94.517Z" fill="black"/>
<path fill-rule="evenodd" clip-rule="evenodd" d="M112.334 37.4838C111.067 37.4838 109.933 37.2069 108.932 36.6533C107.938 36.0919 107.157 35.3183 106.588 34.3322C106.027 33.3385 105.746 32.2122 105.746 30.9529C105.746 29.6863 106.027 28.5561 106.588 27.5624C107.157 26.5612 107.938 25.7837 108.932 25.23C109.933 24.6762 111.067 24.3994 112.334 24.3994C113.608 24.3994 114.746 24.6762 115.747 25.23C116.756 25.7837 117.541 26.5574 118.103 27.551C118.664 28.5447 118.948 29.6787 118.956 30.9529C118.948 32.2122 118.664 33.3385 118.103 34.3322C117.549 35.3183 116.768 36.0919 115.759 36.6533C114.75 37.2069 113.608 37.4838 112.334 37.4838ZM112.334 34.628C113.002 34.628 113.593 34.4763 114.109 34.1729C114.625 33.8619 115.023 33.4295 115.304 32.8758C115.584 32.3145 115.725 31.6735 115.725 30.9529C115.725 30.2248 115.584 29.58 115.304 29.0188C115.023 28.4575 114.625 28.0251 114.109 27.7217C113.593 27.4107 113.002 27.2552 112.334 27.2552C111.674 27.2552 111.086 27.4107 110.57 27.7217C110.062 28.0251 109.668 28.4575 109.387 29.0188C109.107 29.58 108.97 30.2248 108.978 30.9529C108.978 31.6735 109.118 32.3145 109.399 32.8758C109.687 33.4295 110.081 33.8619 110.582 34.1729C111.09 34.4763 111.674 34.628 112.334 34.628Z" fill="black"/>
<path d="M122.312 24.6725H118.854L122.597 37.2109H125.623L128.085 29.2026L130.743 37.2109H133.724L137.479 24.6725H134.35L132.22 32.4769L129.867 24.6725H126.841L124.499 32.6487L122.312 24.6725Z" fill="black"/>
</svg>
