<?xml version="1.0" standalone="no"?>
<!DOCTYPE svg PUBLIC "-//W3C//DTD SVG 20010904//EN"
 "http://www.w3.org/TR/2001/REC-SVG-20010904/DTD/svg10.dtd">
<svg version="1.0" xmlns="http://www.w3.org/2000/svg"
 width="63.000000pt" height="27.000000pt" viewBox="0 0 63.000000 27.000000"
 preserveAspectRatio="xMidYMid meet">

<g transform="translate(0.000000,27.000000) scale(0.100000,-0.100000)"
fill="#000000" stroke="none">
<path d="M10 160 l0 -100 60 0 c53 0 60 2 60 20 0 17 -7 20 -40 20 l-40 0 0
80 c0 73 -2 80 -20 80 -19 0 -20 -7 -20 -100z"/>
<path d="M166 189 c-55 -43 -23 -129 49 -129 46 0 75 29 75 74 0 39 -37 76
-75 76 -12 0 -34 -9 -49 -21z m73 -23 c7 -8 11 -27 9 -43 -2 -21 -9 -29 -27
-31 -13 -2 -28 2 -32 10 -29 45 17 104 50 64z"/>
<path d="M320 183 c-16 -20 -20 -36 -16 -57 9 -46 25 -58 68 -54 31 3 38 0 38
-14 0 -21 -40 -25 -70 -6 -24 15 -38 3 -24 -20 7 -11 27 -18 56 -20 68 -4 78
11 78 114 0 84 -9 101 -37 73 -8 -8 -13 -8 -17 0 -13 21 -54 12 -76 -16z m85
-43 c0 -28 -4 -36 -22 -38 -14 -2 -26 4 -33 17 -15 29 4 63 33 59 18 -2 22
-10 22 -38z"/>
<path d="M495 185 c-30 -30 -32 -64 -4 -99 47 -59 149 -15 135 59 -13 63 -86
86 -131 40z m80 -50 c0 -34 -3 -40 -22 -43 -16 -2 -26 4 -34 21 -15 33 4 69
34 65 18 -2 22 -10 22 -43z"/>
</g>
</svg>
