<svg width="141" height="56" viewBox="0 0 141 56" fill="none" xmlns="http://www.w3.org/2000/svg">
<path fill-rule="evenodd" clip-rule="evenodd" d="M39.2365 16.75L27.727 39.25H16.9163L21.733 29.925H21.5169C17.5431 35.0835 11.6141 38.4794 3.16626 39.25V30.0541C3.16626 30.0541 8.57057 29.7349 11.7476 26.3947H3.16626V16.7502H12.8108V24.6826L13.0272 24.6818L16.9684 16.7502H24.2623V24.6323L24.4786 24.632L28.5676 16.75H39.2365Z" fill="black"/>
<path d="M101.999 36.7665H105.105V18.9375H101.999V36.7665Z" fill="black"/>
<path fill-rule="evenodd" clip-rule="evenodd" d="M84.8755 36.5844C85.5505 36.8651 86.2369 37.0054 86.9348 37.0054C88.0877 37.0054 89.1193 36.7248 90.0296 36.1634C90.9397 35.6022 91.6452 34.8286 92.1458 33.8424C92.6464 32.8488 92.8967 31.7223 92.8967 30.4632C92.8967 29.2041 92.6388 28.0777 92.1231 27.084C91.6072 26.0904 90.8904 25.3205 89.9726 24.7744C89.0548 24.2206 88.0118 23.9476 86.8437 23.9552C86.1004 23.9552 85.3875 24.0993 84.7047 24.3875C84.0221 24.6758 83.4532 25.0854 82.9981 25.6163C82.963 25.6567 82.9288 25.6976 82.8957 25.7388V18.9489H79.7782V36.7666H82.8729L82.8667 35.1021C82.9467 35.2002 83.0323 35.2961 83.1232 35.3898C83.6162 35.8981 84.2003 36.2962 84.8755 36.5844ZM88.0612 33.7059C87.5529 34.0169 86.9727 34.1724 86.3203 34.1724C85.6756 34.1724 85.0839 34.0131 84.5454 33.6946C84.0068 33.3683 83.5783 32.9247 83.2597 32.3633C82.9487 31.8021 82.7932 31.1648 82.7932 30.4518C82.7857 29.7388 82.9373 29.1017 83.2483 28.5404C83.567 27.9715 83.9954 27.5316 84.5341 27.2206C85.0726 26.902 85.6681 26.7465 86.3203 26.7541C86.9727 26.7465 87.5529 26.8982 88.0612 27.2092C88.5769 27.5126 88.9713 27.9488 89.2445 28.5176C89.5251 29.0789 89.6655 29.7237 89.6655 30.4518C89.6655 31.1801 89.5251 31.8248 89.2445 32.3861C88.9713 32.9474 88.5769 33.3873 88.0612 33.7059Z" fill="black"/>
<path d="M43.7363 20.0184H47.2862L50.4617 31.6154L53.8398 20.0184H56.7981L60.4617 31.3827L63.511 20.0184H66.765L61.9636 36.7665H58.903L55.1775 25.6645L51.7577 36.7665H48.663L43.7363 20.0184Z" fill="black"/>
<path fill-rule="evenodd" clip-rule="evenodd" d="M72.0075 37.0623C70.771 37.0699 69.656 36.7968 68.6624 36.2431C67.6763 35.6818 66.8989 34.9043 66.3299 33.9106C65.7687 32.917 65.488 31.783 65.488 30.5086C65.488 29.2723 65.7763 28.1535 66.3528 27.1523C66.9292 26.151 67.7104 25.3697 68.6965 24.8084C69.6827 24.2471 70.7824 23.9665 71.996 23.9665C73.3614 23.9665 74.556 24.2699 75.58 24.8767C76.6117 25.4835 77.3815 26.3444 77.8898 27.4595C78.4055 28.5669 78.5914 29.8374 78.4473 31.271H68.7014C68.7287 31.8421 68.8712 32.3618 69.1289 32.8298C69.4172 33.3455 69.8192 33.7475 70.3349 34.0358C70.8508 34.324 71.4272 34.4681 72.0644 34.4681C72.5498 34.4605 73.0012 34.3771 73.4183 34.2179C73.8355 34.051 74.1882 33.8273 74.4764 33.5465C74.7723 33.2659 74.9809 32.9474 75.1023 32.5909H78.3563C78.159 33.4631 77.7647 34.2406 77.173 34.9233C76.5813 35.5984 75.838 36.1255 74.9429 36.5048C74.0479 36.884 73.0694 37.0699 72.0075 37.0623ZM69.1403 28.1421C68.9585 28.4591 68.8325 28.8004 68.7624 29.1661H75.2228C75.1759 28.7041 75.0333 28.2832 74.795 27.9032C74.5219 27.4557 74.1503 27.1105 73.68 26.8678C73.2098 26.6175 72.6788 26.4924 72.0872 26.4924C71.4575 26.4924 70.8849 26.6365 70.369 26.9247C69.8533 27.2129 69.4437 27.6188 69.1403 28.1421Z" fill="black"/>
<path d="M95.184 24.2282C95.184 23.2118 95.4153 22.3092 95.878 21.5203C96.3406 20.7239 96.9893 20.1057 97.8236 19.6657C98.6655 19.2182 99.6479 18.9868 100.77 18.9717V21.7365C100.247 21.7441 99.7995 21.854 99.4279 22.0664C99.0638 22.2712 98.7831 22.5708 98.5859 22.9653C98.4044 23.3284 98.3064 23.7494 98.292 24.2282H100.702V26.8565H98.2901V36.7665H95.184V26.8565H93.1815V24.2282H95.184Z" fill="black"/>
<path fill-rule="evenodd" clip-rule="evenodd" d="M113.001 37.0395C111.734 37.0395 110.6 36.7626 109.599 36.209C108.605 35.6476 107.824 34.874 107.255 33.8878C106.694 32.8942 106.413 31.7678 106.413 30.5086C106.413 29.242 106.694 28.1117 107.255 27.1181C107.824 26.1168 108.605 25.3393 109.599 24.7856C110.6 24.2319 111.734 23.955 113.001 23.955C114.275 23.955 115.413 24.2319 116.414 24.7856C117.423 25.3393 118.208 26.113 118.77 27.1067C119.331 28.1003 119.615 29.2343 119.623 30.5086C119.615 31.7678 119.331 32.8942 118.77 33.8878C118.216 34.874 117.435 35.6476 116.426 36.209C115.417 36.7626 114.275 37.0395 113.001 37.0395ZM113.001 34.1837C113.669 34.1837 114.26 34.032 114.776 33.7286C115.292 33.4176 115.69 32.9852 115.971 32.4315C116.251 31.8702 116.392 31.2292 116.392 30.5086C116.392 29.7805 116.251 29.1357 115.971 28.5744C115.69 28.0131 115.292 27.5808 114.776 27.2774C114.26 26.9664 113.669 26.8109 113.001 26.8109C112.341 26.8109 111.753 26.9664 111.237 27.2774C110.729 27.5808 110.335 28.0131 110.054 28.5744C109.774 29.1357 109.637 29.7805 109.645 30.5086C109.645 31.2292 109.785 31.8702 110.066 32.4315C110.354 32.9852 110.748 33.4176 111.249 33.7286C111.757 34.032 112.341 34.1837 113.001 34.1837Z" fill="black"/>
<path d="M122.979 24.2282H119.521L123.264 36.7665H126.29L128.752 28.7583L131.41 36.7665H134.391L138.146 24.2282H135.017L132.887 32.0325L130.534 24.2282H127.508L125.166 32.2044L122.979 24.2282Z" fill="black"/>
</svg>
