<svg width="616" height="640" viewBox="0 0 616 640" fill="none" xmlns="http://www.w3.org/2000/svg">
<rect width="616" height="640" fill="#CCCCCC"/>
<rect width="616" height="640" fill="black" fill-opacity="0.5"/>
<path fill-rule="evenodd" clip-rule="evenodd" d="M256.8 268.8H359.2C366.269 268.8 372 274.531 372 281.6V358.4C372 365.469 366.269 371.2 359.2 371.2H256.8C249.731 371.2 244 365.469 244 358.4V281.6C244 274.531 249.731 268.8 256.8 268.8ZM302.688 340.608L327.584 323.968C328.925 323.094 329.734 321.601 329.734 320C329.734 318.399 328.925 316.906 327.584 316.032L302.688 299.392C301.218 298.399 299.32 298.297 297.752 299.128C296.185 299.958 295.203 301.586 295.2 303.36V336.64C295.203 338.414 296.185 340.042 297.752 340.872C299.32 341.703 301.218 341.601 302.688 340.608Z" fill="black" fill-opacity="0.15"/>
<path fill-rule="evenodd" clip-rule="evenodd" d="M281.333 320C281.333 305.272 293.272 293.333 308 293.333C315.072 293.333 321.855 296.143 326.856 301.144C331.857 306.145 334.666 312.928 334.666 320C334.666 334.728 322.727 346.667 308 346.667C293.272 346.667 281.333 334.728 281.333 320ZM303.12 331.413L318.666 321.707C319.248 321.334 319.6 320.691 319.6 320C319.6 319.309 319.248 318.666 318.666 318.293L303.066 308.587C302.452 308.199 301.676 308.175 301.039 308.524C300.402 308.873 300.004 309.54 300 310.267V329.733C299.991 330.477 300.396 331.165 301.051 331.517C301.706 331.87 302.503 331.83 303.12 331.413Z" fill="white"/>
</svg>
