<svg width="133" height="37" viewBox="0 0 133 37" fill="none" xmlns="http://www.w3.org/2000/svg">
<path fill-rule="evenodd" clip-rule="evenodd" d="M31.5521 8.90154L31.8032 9.34997C32.1194 9.89492 32.2865 10.5136 32.2875 11.1436V25.0451C32.2823 25.6746 32.1156 26.2922 31.8032 26.8389L31.5341 27.2873C31.2269 27.8363 30.7737 28.2894 30.2248 28.5967L18.1888 35.5564C17.6437 35.8725 17.0251 36.0395 16.395 36.0407H15.8928C15.2618 36.0466 14.6414 35.8791 14.0991 35.5564L2.04519 28.6147C1.50794 28.2921 1.05826 27.8425 0.735769 27.3052L0.484646 26.8568C0.168493 26.3118 0.00145569 25.6931 0.000335693 25.0631V11.1616C0.00145569 10.5316 0.168493 9.91286 0.484646 9.36791L0.735769 8.91947C1.05013 8.37593 1.50164 7.92434 2.04519 7.61004L14.0811 0.650326C14.6262 0.33419 15.2448 0.167153 15.8749 0.166016H16.395C17.0251 0.167153 17.6437 0.33419 18.1888 0.650326L30.2248 7.5921C30.7714 7.9085 31.2282 8.35921 31.5521 8.90154ZM16.395 3.75341H15.8749L5.38156 9.81626L16.1439 16.0225L26.9064 9.81626L16.395 3.75341ZM28.431 25.4936L17.9377 31.5565V19.1438L28.7 12.9196V25.0452L28.431 25.4936ZM79.0636 26.7135H75.3441V7.08289H79.0636V26.7135ZM45.5003 27.1343H49.6589V20.0053H51.467L55.8839 27.1343H60.3266L55.4448 19.2821C57.6146 18.6363 59.2418 17.164 59.2418 14.3744V14.2711C59.2418 10.4483 56.478 8.66602 52.1128 8.66602H45.5003V27.1343ZM49.6589 17.164V11.8689H52.0094C54.0242 11.8689 55.1607 12.5147 55.1607 14.4002V14.5036C55.1607 16.2858 54.1017 17.164 52.0094 17.164H49.6589ZM67.0809 26.9969C70.7745 26.9969 73.0992 25.3697 73.5383 22.4509H69.9996C69.7672 23.5874 68.9148 24.3365 67.1842 24.3365C65.1437 24.3365 63.9297 23.045 63.8264 20.7978H73.5642V19.7647C73.5642 14.9344 70.4646 12.8939 66.9776 12.8939C63.0515 12.8939 60.0293 15.6577 60.0293 19.9196V20.1262C60.0293 24.4398 62.9998 26.9969 67.0809 26.9969ZM63.878 18.499C64.1621 16.5875 65.2986 15.4769 66.9776 15.4769C68.7599 15.4769 69.7931 16.4584 69.9222 18.499H63.878ZM86.1988 26.998C88.4204 26.998 89.7889 25.9648 90.4863 24.5959V26.7139H94.2059V13.205H90.4863V21.1347C90.4863 23.1236 89.2464 24.1051 87.6714 24.1051C86.0702 24.1051 85.3203 23.2269 85.3203 21.393V13.205H81.6012V21.9096C81.6012 25.4482 83.5642 26.998 86.1988 26.998ZM100.491 26.7128H96.7451V13.2038H100.491V15.2702C101.162 14.0046 102.608 12.8939 104.624 12.8939C106.406 12.8939 107.749 13.643 108.395 15.2444C109.48 13.6171 111.236 12.8939 112.94 12.8939C115.446 12.8939 117.384 14.4695 117.384 18.0599V26.7128H113.664V18.4732C113.664 16.7425 112.889 15.9676 111.546 15.9676C110.099 15.9676 108.937 16.8976 108.937 18.7315V26.7128H105.218V18.4732C105.218 16.7425 104.417 15.9676 103.099 15.9676C101.653 15.9676 100.491 16.8976 100.491 18.7315V26.7128ZM126.032 26.9969C129.726 26.9969 132.051 25.3697 132.489 22.4509H128.951C128.718 23.5874 127.866 24.3365 126.135 24.3365C124.095 24.3365 122.881 23.045 122.778 20.7978H132.516V19.7647C132.516 14.9344 129.415 12.8939 125.929 12.8939C122.002 12.8939 118.98 15.6577 118.98 19.9196V20.1262C118.98 24.4398 121.951 26.9969 126.032 26.9969ZM122.829 18.499C123.114 16.5875 124.25 15.4769 125.929 15.4769C127.711 15.4769 128.744 16.4584 128.874 18.499H122.829Z" fill="black"/>
</svg>
