<svg width="133" height="37" viewBox="0 0 133 37" fill="none" xmlns="http://www.w3.org/2000/svg">
<path fill-rule="evenodd" clip-rule="evenodd" d="M31.5531 9.23552L31.8042 9.68396C32.1204 10.2289 32.2875 10.8476 32.2885 11.4776V25.3791C32.2833 26.0086 32.1166 26.6262 31.8042 27.1728L31.5351 27.6213C31.2279 28.1703 30.7747 28.6234 30.2258 28.9307L18.1898 35.8903C17.6448 36.2065 17.0261 36.3735 16.396 36.3747H15.8938C15.2628 36.3806 14.6424 36.213 14.1001 35.8903L2.0462 28.9487C1.50895 28.6261 1.05927 28.1765 0.736777 27.6392L0.485653 27.1908C0.1695 26.6457 0.00246277 26.0271 0.00134277 25.397V11.4955C0.00246277 10.8656 0.1695 10.2468 0.485653 9.70189L0.736777 9.25346C1.05114 8.70991 1.50265 8.25832 2.0462 7.94403L14.0821 0.98431C14.6272 0.668174 15.2458 0.501137 15.8759 0.5H16.396C17.0261 0.501137 17.6448 0.668174 18.1898 0.98431L30.2258 7.92609C30.7724 8.24249 31.2292 8.6932 31.5531 9.23552ZM16.396 4.08739H15.8759L5.38257 10.1502L16.1449 16.3565L26.9074 10.1502L16.396 4.08739ZM28.432 25.8276L17.9387 31.8905V19.4778L28.701 13.2536V25.3792L28.432 25.8276ZM79.0646 27.0475H75.3451V7.41687H79.0646V27.0475ZM45.5013 27.4683H49.6599V20.3392H51.468L55.8849 27.4683H60.3276L55.4458 19.6161C57.6156 18.9703 59.2428 17.498 59.2428 14.7084V14.605C59.2428 10.7823 56.479 9 52.1138 9H45.5013V27.4683ZM49.6599 17.498V12.2029H52.0104C54.0252 12.2029 55.1617 12.8487 55.1617 14.7342V14.8375C55.1617 16.6198 54.1027 17.498 52.0104 17.498H49.6599ZM67.0819 27.3309C70.7755 27.3309 73.1002 25.7037 73.5393 22.7849H70.0006C69.7682 23.9214 68.9158 24.6705 67.1853 24.6705C65.1447 24.6705 63.9307 23.379 63.8274 21.1318H73.5652V20.0986C73.5652 15.2684 70.4656 13.2279 66.9786 13.2279C63.0525 13.2279 60.0303 15.9917 60.0303 20.2536V20.4602C60.0303 24.7738 63.0008 27.3309 67.0819 27.3309ZM63.879 18.833C64.1631 16.9215 65.2996 15.8109 66.9786 15.8109C68.7609 15.8109 69.7941 16.7924 69.9232 18.833H63.879ZM86.1998 27.332C88.4214 27.332 89.7899 26.2988 90.4873 24.9299V27.0479H94.2069V13.5389H90.4873V21.4687C90.4873 23.4576 89.2474 24.4391 87.6724 24.4391C86.0712 24.4391 85.3213 23.5609 85.3213 21.727V13.5389H81.6022V22.2436C81.6022 25.7822 83.5652 27.332 86.1998 27.332ZM100.492 27.0468H96.7462V13.5378H100.492V15.6042C101.163 14.3385 102.609 13.2279 104.625 13.2279C106.407 13.2279 107.75 13.977 108.396 15.5784C109.481 13.9511 111.237 13.2279 112.941 13.2279C115.447 13.2279 117.385 14.8035 117.385 18.3939V27.0468H113.665V18.8071C113.665 17.0765 112.89 16.3016 111.547 16.3016C110.1 16.3016 108.938 17.2315 108.938 19.0654V27.0468H105.219V18.8071C105.219 17.0765 104.418 16.3016 103.1 16.3016C101.654 16.3016 100.492 17.2315 100.492 19.0654V27.0468ZM126.033 27.3309C129.727 27.3309 132.052 25.7037 132.49 22.7849H128.952C128.719 23.9214 127.867 24.6705 126.136 24.6705C124.096 24.6705 122.882 23.379 122.779 21.1318H132.517V20.0986C132.517 15.2684 129.416 13.2279 125.93 13.2279C122.003 13.2279 118.981 15.9917 118.981 20.2536V20.4602C118.981 24.7738 121.952 27.3309 126.033 27.3309ZM122.83 18.833C123.115 16.9215 124.251 15.8109 125.93 15.8109C127.712 15.8109 128.745 16.7924 128.875 18.833H122.83Z" fill="black"/>
</svg>
