<svg width="24" height="23" viewBox="0 0 24 23" fill="none" xmlns="http://www.w3.org/2000/svg">
<path d="M10.8851 1.06685C11.2976 0.0870922 12.7025 0.0870935 13.115 1.06685L15.5495 6.84953C15.7235 7.26257 16.1167 7.54478 16.568 7.58053L22.8873 8.08102C23.9579 8.16582 24.3921 9.48581 23.5763 10.1761L18.7618 14.2505C18.4179 14.5415 18.2676 14.9982 18.3727 15.4333L19.8436 21.5253C20.0928 22.5574 18.9563 23.3733 18.0396 22.8202L12.6295 19.5555C12.243 19.3223 11.757 19.3223 11.3706 19.5555L5.9604 22.8202C5.04375 23.3733 3.90716 22.5574 4.15637 21.5253L5.62732 15.4333C5.73239 14.9982 5.5822 14.5415 5.23832 14.2505L0.423676 10.1761C-0.392062 9.48581 0.0420815 8.16582 1.11275 8.08102L7.43204 7.58053C7.88342 7.54478 8.27661 7.26257 8.4505 6.84953L10.8851 1.06685Z" fill="black"/>
</svg>
