<svg width="12" height="15" viewBox="0 0 12 15" fill="none" xmlns="http://www.w3.org/2000/svg">
<path fill-rule="evenodd" clip-rule="evenodd" d="M11.82 4.24732L11.7267 4.08065C11.6063 3.87911 11.4365 3.7116 11.2333 3.59398L6.76 1.01398C6.55746 0.896484 6.32753 0.834398 6.09333 0.833984H5.9C5.6658 0.834398 5.43586 0.896484 5.23333 1.01398L0.76 3.60065C0.55798 3.71749 0.390173 3.8853 0.273333 4.08732L0.18 4.25398C0.0625 4.45654 0.000413333 4.68648 0 4.92065V10.0873C0.000413333 10.3215 0.0625 10.5514 0.18 10.754L0.273333 10.9206C0.393193 11.1203 0.560326 11.2874 0.76 11.4073L5.24 13.9873C5.44153 14.1072 5.67213 14.1695 5.90666 14.1673H6.09333C6.32753 14.1669 6.55746 14.1048 6.76 13.9873L11.2333 11.4006C11.4373 11.2864 11.6058 11.118 11.72 10.914L11.82 10.7473C11.9361 10.5442 11.9981 10.3146 12 10.0806V4.91398C11.9996 4.67981 11.9375 4.44988 11.82 4.24732ZM5.9 2.16732H6.09333L10 4.42065L6 6.72732L2 4.42065L5.9 2.16732ZM6.66666 12.5006L10.5667 10.2473L10.6667 10.0806V5.57398L6.66666 7.88732V12.5006Z" fill="black"/>
</svg>
