<svg width="616" height="640" viewBox="0 0 616 640" fill="none" xmlns="http://www.w3.org/2000/svg">
<rect width="616" height="640" fill="#CCCCCC"/>
<rect width="616" height="640" fill="black" fill-opacity="0.5"/>
<path fill-rule="evenodd" clip-rule="evenodd" d="M256.8 268.801H359.2C366.269 268.801 372 274.531 372 281.601V358.401C372 365.47 366.269 371.201 359.2 371.201H256.8C249.731 371.201 244 365.47 244 358.401V281.601C244 274.531 249.731 268.801 256.8 268.801ZM302.688 340.609L327.584 323.969C328.925 323.095 329.734 321.602 329.734 320.001C329.734 318.4 328.925 316.907 327.584 316.033L302.688 299.393C301.218 298.399 299.32 298.298 297.752 299.128C296.185 299.959 295.203 301.587 295.2 303.361V336.641C295.203 338.415 296.185 340.042 297.752 340.873C299.32 341.704 301.218 341.602 302.688 340.609Z" fill="black" fill-opacity="0.15"/>
<path fill-rule="evenodd" clip-rule="evenodd" d="M281.333 320.001C281.333 305.273 293.272 293.334 308 293.334C315.072 293.334 321.855 296.144 326.856 301.144C331.857 306.145 334.666 312.928 334.666 320.001C334.666 334.728 322.727 346.667 308 346.667C293.272 346.667 281.333 334.728 281.333 320.001ZM303.12 331.414L318.666 321.707C319.248 321.335 319.6 320.692 319.6 320.001C319.6 319.31 319.248 318.667 318.666 318.294L303.066 308.587C302.452 308.2 301.676 308.176 301.039 308.525C300.402 308.874 300.004 309.541 300 310.267V329.734C299.991 330.478 300.396 331.165 301.051 331.518C301.706 331.871 302.503 331.831 303.12 331.414Z" fill="white"/>
</svg>
