<svg width="136" height="24" viewBox="0 0 136 24" fill="none" xmlns="http://www.w3.org/2000/svg">
<path fill-rule="evenodd" clip-rule="evenodd" d="M36.5716 0.749878L25.0621 23.2499H14.2513L19.0681 13.9249H18.852C14.8782 19.0834 8.94922 22.4793 0.501343 23.2499V14.054C0.501343 14.054 5.90566 13.7348 9.08269 10.3946H0.501343V0.750055H10.1459V8.68253L10.3623 8.68164L14.3035 0.750055H21.5973V8.63223L21.8137 8.63188L25.9027 0.749878H36.5716Z" fill="black"/>
<path d="M99.3344 20.7664H102.44V2.93738H99.3344V20.7664Z" fill="black"/>
<path fill-rule="evenodd" clip-rule="evenodd" d="M82.2105 20.5843C82.8855 20.8649 83.572 21.0053 84.2699 21.0053C85.4228 21.0053 86.4544 20.7247 87.3647 20.1633C88.2748 19.6021 88.9803 18.8284 89.4809 17.8423C89.9815 16.8487 90.2318 15.7222 90.2318 14.4631C90.2318 13.2039 89.9739 12.0776 89.4582 11.0839C88.9423 10.0903 88.2255 9.32037 87.3077 8.77423C86.3899 8.22052 85.3469 7.94746 84.1788 7.95503C83.4355 7.95503 82.7225 8.09916 82.0398 8.3874C81.3572 8.67563 80.7883 9.08523 80.3332 9.6162C80.298 9.65662 80.2639 9.69745 80.2308 9.73868V2.94882H77.1133V20.7664H80.208L80.2018 19.1019C80.2818 19.2001 80.3674 19.2959 80.4583 19.3897C80.9513 19.8979 81.5354 20.2961 82.2105 20.5843ZM85.3963 17.7058C84.888 18.0168 84.3078 18.1723 83.6554 18.1723C83.0107 18.1723 82.419 18.0129 81.8805 17.6944C81.3419 17.3682 80.9134 16.9246 80.5948 16.3632C80.2838 15.8019 80.1283 15.1647 80.1283 14.4517C80.1208 13.7387 80.2724 13.1016 80.5834 12.5403C80.902 11.9714 81.3305 11.5314 81.8692 11.2205C82.4077 10.9019 83.0032 10.7464 83.6554 10.754C84.3078 10.7464 84.888 10.8981 85.3963 11.2091C85.912 11.5125 86.3064 11.9486 86.5795 12.5175C86.8602 13.0788 87.0005 13.7236 87.0005 14.4517C87.0005 15.1799 86.8602 15.8247 86.5795 16.3859C86.3064 16.9473 85.912 17.3872 85.3963 17.7058Z" fill="black"/>
<path d="M41.0714 4.01831H44.6213L47.7968 15.6153L51.1749 4.01831H54.1332L57.7968 15.3825L60.846 4.01831H64.1L59.2987 20.7664H56.238L52.5125 9.66441L49.0928 20.7664H45.998L41.0714 4.01831Z" fill="black"/>
<path fill-rule="evenodd" clip-rule="evenodd" d="M69.3426 21.0621C68.1061 21.0698 66.9911 20.7966 65.9975 20.243C65.0114 19.6816 64.234 18.9041 63.665 17.9105C63.1037 16.9169 62.8231 15.7829 62.8231 14.5085C62.8231 13.2721 63.1114 12.1534 63.6879 11.1521C64.2642 10.1509 65.0455 9.36962 66.0316 8.80832C67.0177 8.24702 68.1175 7.96637 69.3311 7.96637C70.6965 7.96637 71.8911 8.26977 72.9151 8.87658C73.9467 9.48339 74.7166 10.3443 75.2249 11.4593C75.7406 12.5668 75.9265 13.8373 75.7824 15.2709H66.0365C66.0638 15.842 66.2062 16.3616 66.464 16.8296C66.7523 17.3454 67.1542 17.7474 67.67 18.0356C68.1859 18.3239 68.7622 18.468 69.3995 18.468C69.8849 18.4604 70.3363 18.377 70.7534 18.2178C71.1706 18.0509 71.5232 17.8271 71.8115 17.5464C72.1074 17.2658 72.316 16.9473 72.4374 16.5908H75.6914C75.4941 17.463 75.0997 18.2405 74.5081 18.9231C73.9164 19.5983 73.1731 20.1254 72.278 20.5046C71.383 20.8839 70.4045 21.0698 69.3426 21.0621ZM66.4754 12.142C66.2936 12.459 66.1676 12.8003 66.0975 13.166H72.5579C72.511 12.704 72.3684 12.283 72.1301 11.9031C71.857 11.4555 71.4854 11.1104 71.0151 10.8677C70.5449 10.6174 70.0139 10.4922 69.4222 10.4922C68.7926 10.4922 68.22 10.6363 67.7041 10.9246C67.1884 11.2128 66.7787 11.6186 66.4754 12.142Z" fill="black"/>
<path d="M92.5191 8.22808C92.5191 7.21167 92.7503 6.30903 93.2131 5.52017C93.6757 4.72373 94.3243 4.10553 95.1587 3.6656C96.0006 3.21807 96.983 2.98672 98.1055 2.97156V5.73635C97.5821 5.74393 97.1346 5.85392 96.763 6.06631C96.3988 6.27111 96.1182 6.57072 95.921 6.96515C95.7395 7.32827 95.6415 7.74925 95.6271 8.22808H98.0372V10.8563H95.6252V20.7664H92.5191V10.8563H90.5166V8.22808H92.5191Z" fill="black"/>
<path fill-rule="evenodd" clip-rule="evenodd" d="M110.336 21.0393C109.069 21.0393 107.935 20.7625 106.934 20.2088C105.941 19.6475 105.159 18.8738 104.59 17.8877C104.029 16.8941 103.748 15.7677 103.748 14.5085C103.748 13.2418 104.029 12.1116 104.59 11.118C105.159 10.1167 105.941 9.33923 106.934 8.78551C107.935 8.23179 109.069 7.95493 110.336 7.95493C111.61 7.95493 112.748 8.23179 113.749 8.78551C114.758 9.33923 115.543 10.1129 116.105 11.1066C116.666 12.1002 116.95 13.2342 116.958 14.5085C116.95 15.7677 116.666 16.8941 116.105 17.8877C115.551 18.8738 114.77 19.6475 113.761 20.2088C112.752 20.7625 111.61 21.0393 110.336 21.0393ZM110.336 18.1836C111.004 18.1836 111.595 18.0318 112.111 17.7285C112.627 17.4175 113.025 16.9851 113.306 16.4313C113.586 15.8701 113.727 15.2291 113.727 14.5085C113.727 13.7803 113.586 13.1356 113.306 12.5743C113.025 12.013 112.627 11.5807 112.111 11.2772C111.595 10.9663 111.004 10.8108 110.336 10.8108C109.676 10.8108 109.088 10.9663 108.573 11.2772C108.064 11.5807 107.67 12.013 107.389 12.5743C107.109 13.1356 106.972 13.7803 106.98 14.5085C106.98 15.2291 107.12 15.8701 107.401 16.4313C107.689 16.9851 108.083 17.4175 108.584 17.7285C109.092 18.0318 109.676 18.1836 110.336 18.1836Z" fill="black"/>
<path d="M120.314 8.22806H116.856L120.599 20.7664H123.625L126.087 12.7581L128.745 20.7664H131.726L135.481 8.22806H132.352L130.222 16.0324L127.869 8.22806H124.843L122.501 16.2043L120.314 8.22806Z" fill="black"/>
</svg>
