<svg width="136" height="23" viewBox="0 0 136 23" fill="none" xmlns="http://www.w3.org/2000/svg">
<path fill-rule="evenodd" clip-rule="evenodd" d="M36.5699 0.416016L25.0604 22.916H14.2496L19.0664 13.591H18.8503C14.8765 18.7495 8.94751 22.1454 0.499634 22.916V13.7201C0.499634 13.7201 5.90395 13.4009 9.08098 10.0607H0.499634V0.416193H10.1441V8.34867L10.3606 8.34778L14.3018 0.416193H21.5956V8.29837L21.812 8.29802L25.901 0.416016H36.5699Z" fill="black"/>
<path d="M99.3326 20.4325H102.439V2.60352H99.3326V20.4325Z" fill="black"/>
<path fill-rule="evenodd" clip-rule="evenodd" d="M82.2088 20.2505C82.8838 20.5311 83.5703 20.6715 84.2682 20.6715C85.4211 20.6715 86.4527 20.3908 87.3629 19.8295C88.2731 19.2682 88.9786 18.4946 89.4792 17.5085C89.9798 16.5148 90.2301 15.3883 90.2301 14.1292C90.2301 12.8701 89.9722 11.7437 89.4565 10.7501C88.9406 9.75641 88.2238 8.98651 87.3059 8.44037C86.3882 7.88666 85.3452 7.6136 84.1771 7.62117C83.4338 7.62117 82.7208 7.7653 82.0381 8.05353C81.3555 8.34177 80.7866 8.75137 80.3315 9.28233C80.2963 9.32276 80.2622 9.36358 80.2291 9.40482V2.61496H77.1116V20.4326H80.2063L80.2001 18.7681C80.2801 18.8662 80.3657 18.9621 80.4566 19.0558C80.9496 19.5641 81.5337 19.9622 82.2088 20.2505ZM85.3946 17.372C84.8863 17.683 84.3061 17.8385 83.6537 17.8385C83.0089 17.8385 82.4173 17.6791 81.8788 17.3606C81.3402 17.0343 80.9117 16.5907 80.5931 16.0293C80.2821 15.4681 80.1266 14.8308 80.1266 14.1178C80.1191 13.4048 80.2707 12.7677 80.5817 12.2064C80.9003 11.6375 81.3288 11.1976 81.8674 10.8866C82.4059 10.568 83.0014 10.4125 83.6537 10.4201C84.3061 10.4125 84.8863 10.5642 85.3946 10.8752C85.9103 11.1786 86.3047 11.6148 86.5778 12.1837C86.8585 12.745 86.9988 13.3897 86.9988 14.1178C86.9988 14.8461 86.8585 15.4908 86.5778 16.0521C86.3047 16.6135 85.9103 17.0533 85.3946 17.372Z" fill="black"/>
<path d="M41.0697 3.68445H44.6196L47.7951 15.2814L51.1732 3.68445H54.1315L57.7951 15.0487L60.8443 3.68445H64.0983L59.297 20.4326H56.2363L52.5108 9.33055L49.0911 20.4326H45.9963L41.0697 3.68445Z" fill="black"/>
<path fill-rule="evenodd" clip-rule="evenodd" d="M69.3409 20.7283C68.1044 20.7359 66.9894 20.4628 65.9958 19.9092C65.0097 19.3478 64.2323 18.5703 63.6633 17.5767C63.102 16.583 62.8214 15.449 62.8214 14.1747C62.8214 12.9383 63.1097 11.8195 63.6862 10.8183C64.2625 9.81703 65.0438 9.03576 66.0299 8.47446C67.016 7.91316 68.1158 7.63251 69.3294 7.63251C70.6948 7.63251 71.8894 7.93591 72.9134 8.54272C73.945 9.14953 74.7149 10.0105 75.2232 11.1255C75.7389 12.2329 75.9248 13.5034 75.7807 14.937H66.0348C66.062 15.5082 66.2045 16.0278 66.4623 16.4958C66.7505 17.0115 67.1525 17.4135 67.6683 17.7018C68.1842 17.99 68.7605 18.1342 69.3978 18.1342C69.8832 18.1265 70.3345 18.0432 70.7517 17.8839C71.1689 17.717 71.5215 17.4933 71.8098 17.2125C72.1057 16.9319 72.3143 16.6134 72.4357 16.2569H75.6897C75.4924 17.1292 75.098 17.9067 74.5064 18.5893C73.9147 19.2644 73.1714 19.7915 72.2763 20.1708C71.3813 20.55 70.4028 20.7359 69.3409 20.7283ZM66.4737 11.8081C66.2919 12.1251 66.1659 12.4664 66.0958 12.8322H72.5562C72.5093 12.3702 72.3667 11.9492 72.1284 11.5692C71.8553 11.1217 71.4837 10.7766 71.0134 10.5338C70.5432 10.2835 70.0122 10.1584 69.4205 10.1584C68.7909 10.1584 68.2183 10.3025 67.7024 10.5907C67.1867 10.879 66.777 11.2848 66.4737 11.8081Z" fill="black"/>
<path d="M92.5174 7.89422C92.5174 6.87781 92.7486 5.97517 93.2114 5.18631C93.674 4.38987 94.3226 3.77167 95.157 3.33173C95.9989 2.88421 96.9813 2.65286 98.1038 2.6377V5.40248C97.5804 5.41007 97.1329 5.52006 96.7613 5.73245C96.3971 5.93725 96.1165 6.23686 95.9193 6.63128C95.7378 6.99441 95.6398 7.41538 95.6254 7.89422H98.0355V10.5225H95.6235V20.4326H92.5174V10.5225H90.5149V7.89422H92.5174Z" fill="black"/>
<path fill-rule="evenodd" clip-rule="evenodd" d="M110.334 20.7055C109.068 20.7055 107.934 20.4286 106.932 19.875C105.939 19.3136 105.158 18.54 104.589 17.5539C104.027 16.5602 103.747 15.4339 103.747 14.1746C103.747 12.908 104.027 11.7778 104.589 10.7841C105.158 9.78284 105.939 9.00536 106.932 8.45165C107.934 7.89793 109.068 7.62106 110.334 7.62106C111.609 7.62106 112.747 7.89793 113.748 8.45165C114.757 9.00536 115.542 9.77905 116.103 10.7727C116.664 11.7664 116.949 12.9004 116.956 14.1746C116.949 15.4339 116.664 16.5602 116.103 17.5539C115.549 18.54 114.768 19.3136 113.759 19.875C112.75 20.4286 111.609 20.7055 110.334 20.7055ZM110.334 17.8497C111.002 17.8497 111.594 17.698 112.109 17.3946C112.625 17.0836 113.023 16.6512 113.304 16.0975C113.585 15.5362 113.725 14.8952 113.725 14.1746C113.725 13.4465 113.585 12.8017 113.304 12.2404C113.023 11.6791 112.625 11.2468 112.109 10.9434C111.594 10.6324 111.002 10.4769 110.334 10.4769C109.675 10.4769 109.087 10.6324 108.571 10.9434C108.063 11.2468 107.668 11.6791 107.388 12.2404C107.107 12.8017 106.97 13.4465 106.978 14.1746C106.978 14.8952 107.118 15.5362 107.399 16.0975C107.687 16.6512 108.082 17.0836 108.582 17.3946C109.09 17.698 109.675 17.8497 110.334 17.8497Z" fill="black"/>
<path d="M120.313 7.8942H116.854L120.597 20.4325H123.624L126.086 12.4243L128.743 20.4325H131.725L135.48 7.8942H132.351L130.221 15.6985L127.867 7.8942H124.841L122.499 15.8704L120.313 7.8942Z" fill="black"/>
</svg>
