<svg width="25" height="24" viewBox="0 0 25 24" fill="none" xmlns="http://www.w3.org/2000/svg">
<path d="M22.2597 7.20301C22.1457 6.78041 21.9232 6.39501 21.614 6.08518C21.3049 5.77534 20.92 5.55187 20.4977 5.43701C18.9317 5.00701 12.6667 5.00001 12.6667 5.00001C12.6667 5.00001 6.40265 4.99301 4.83565 5.40401C4.41358 5.52415 4.02947 5.75078 3.72022 6.06214C3.41096 6.3735 3.18694 6.75913 3.06965 7.18201C2.65665 8.74801 2.65265 11.996 2.65265 11.996C2.65265 11.996 2.64865 15.26 3.05865 16.81C3.28865 17.667 3.96365 18.344 4.82165 18.575C6.40365 19.005 12.6517 19.012 12.6517 19.012C12.6517 19.012 18.9167 19.019 20.4827 18.609C20.9051 18.4943 21.2904 18.2714 21.6003 17.9622C21.9102 17.653 22.134 17.2682 22.2497 16.846C22.6637 15.281 22.6667 12.034 22.6667 12.034C22.6667 12.034 22.6867 8.76901 22.2597 7.20301ZM10.6627 15.005L10.6677 9.00501L15.8747 12.01L10.6627 15.005Z" fill="black"/>
</svg>
